<?xml version="1.0" standalone="no"?>
<!DOCTYPE svg PUBLIC "-//W3C//DTD SVG 20010904//EN"
 "http://www.w3.org/TR/2001/REC-SVG-20010904/DTD/svg10.dtd">
<svg version="1.0" xmlns="http://www.w3.org/2000/svg"
 width="512.000000pt" height="512.000000pt" viewBox="0 0 512.000000 512.000000"
 preserveAspectRatio="xMidYMid meet">
<metadata>
Created by potrace 1.14, written by Peter Selinger 2001-2017
</metadata>
<g transform="translate(0.000000,512.000000) scale(0.100000,-0.100000)"
fill="#000000" stroke="none">
<path d="M4688 4114 c-27 -6 -48 -10 -48 -7 0 3 -6 1 -12 -4 -11 -9 -68 -27
-76 -24 -1 1 -16 -6 -33 -15 -34 -17 -63 -26 -96 -28 -11 0 -19 -4 -16 -8 2
-5 -11 -8 -29 -9 -18 0 -42 -2 -53 -4 -11 -2 -49 -6 -85 -9 -122 -9 -166 -26
-228 -86 -22 -22 -43 -36 -47 -32 -5 4 -5 2 -2 -4 13 -22 -30 -47 -102 -59
-64 -11 -69 -29 -13 -45 23 -6 39 -16 39 -25 0 -8 -3 -13 -5 -10 -3 3 -11 0
-19 -6 -8 -7 -13 -8 -13 -1 0 5 -10 8 -22 4 -18 -4 -20 -2 -15 14 7 18 7 18
-8 0 -8 -11 -15 -14 -15 -7 0 7 -5 9 -10 6 -6 -4 -17 -2 -23 4 -9 7 -26 4 -60
-13 -26 -12 -44 -25 -40 -29 3 -4 -4 -7 -16 -7 -14 0 -20 4 -15 12 4 7 3 8 -5
4 -6 -4 -19 -2 -28 5 -27 23 -99 20 -127 -6 -14 -13 -27 -20 -30 -17 -3 3 -6
-3 -6 -12 0 -12 -5 -16 -16 -12 -8 3 -12 2 -9 -3 3 -5 -4 -12 -15 -16 -11 -3
-20 -11 -20 -17 0 -6 -3 -8 -6 -5 -4 3 -15 2 -26 -4 -26 -14 -70 -23 -173 -35
-74 -9 -100 -9 -145 1 -19 4 -45 7 -57 6 -13 0 -23 3 -23 7 0 4 -10 8 -22 8
-52 3 -78 9 -78 18 0 5 -3 7 -6 3 -3 -3 -29 1 -57 10 -69 20 -86 23 -192 27
-87 4 -109 10 -167 49 -15 10 -39 17 -55 16 -51 -4 -84 1 -78 11 3 6 1 10 -4
10 -6 0 -11 11 -11 25 0 25 -22 43 -63 51 -39 7 -151 18 -195 18 -23 0 -42 4
-42 8 0 5 -5 6 -12 2 -17 -11 -171 -14 -229 -5 -36 6 -54 4 -69 -6 -11 -8 -20
-11 -20 -8 0 3 -15 -10 -33 -30 -21 -23 -34 -31 -34 -21 0 8 4 13 9 10 4 -3 8
-1 8 5 0 5 7 17 16 26 31 31 10 46 -63 44 -38 -1 -72 -4 -78 -8 -5 -3 -14 -6
-20 -8 -5 -1 -30 -9 -54 -18 -24 -9 -50 -14 -58 -11 -8 3 -11 1 -8 -4 3 -6 -6
-11 -22 -11 -167 -9 -220 -14 -259 -29 -13 -5 -24 -7 -24 -4 0 2 -8 0 -18 -5
-13 -7 -23 -6 -32 2 -10 9 -11 9 -6 0 5 -10 1 -11 -16 -4 -26 9 -70 -4 -133
-39 -21 -12 -58 -23 -82 -23 -24 -1 -43 -4 -43 -7 0 -3 -8 -6 -17 -7 -10 -1
-41 -3 -70 -5 -28 -1 -47 -6 -41 -9 8 -5 -11 -12 -76 -25 -10 -2 -30 -10 -45
-18 -14 -8 -73 -33 -131 -57 -58 -23 -109 -49 -113 -56 -4 -7 -14 -13 -21 -13
-8 0 -19 -7 -26 -15 -7 -8 -17 -12 -24 -8 -6 3 -8 3 -4 -2 4 -4 1 -13 -8 -19
-16 -13 -19 -61 -8 -136 3 -25 6 -55 6 -67 0 -13 5 -20 10 -17 6 4 8 1 6 -7
-3 -8 -1 -22 4 -31 5 -12 5 -18 -2 -18 -5 0 -10 -5 -10 -11 0 -5 6 -7 13 -3 6
4 9 4 5 -1 -4 -4 -4 -13 1 -19 16 -21 20 -55 6 -49 -15 5 -15 -21 0 -34 4 -4
5 -2 0 6 -5 9 -3 12 5 9 16 -5 43 -74 41 -106 0 -13 3 -20 9 -17 6 3 10 -1 10
-9 0 -9 5 -16 10 -16 6 0 10 -4 10 -9 0 -5 -8 -8 -17 -6 -10 1 -12 0 -5 -2 11
-4 11 -8 1 -21 -11 -14 -11 -15 1 -4 19 17 35 15 21 -2 -9 -11 -9 -16 0 -22 8
-5 9 -3 4 6 -5 9 -4 11 3 6 18 -11 14 -34 -5 -45 -11 -6 -13 -11 -5 -11 7 0
10 -5 6 -12 -4 -7 -3 -8 5 -4 6 4 8 13 5 19 -4 7 -3 9 1 4 5 -4 8 -29 6 -56
-1 -27 4 -64 12 -84 12 -26 12 -38 4 -47 -9 -8 -7 -10 8 -5 17 6 17 4 -4 -13
-18 -14 -21 -21 -11 -27 9 -6 11 -4 5 5 -6 10 -4 12 9 7 10 -4 15 -3 11 3 -3
6 -1 10 4 10 6 0 11 -6 11 -13 0 -7 11 -29 24 -48 17 -25 22 -39 15 -46 -8 -8
-7 -13 2 -18 8 -6 10 -4 4 5 -5 9 -4 11 4 6 6 -4 9 -12 6 -17 -4 -5 -2 -9 3
-9 20 0 23 -34 5 -49 -17 -13 -17 -13 0 -7 28 9 38 -2 25 -29 -6 -13 -14 -23
-17 -20 -7 4 -9 -5 -13 -60 -2 -16 -10 -36 -18 -43 -8 -8 -9 -11 -2 -7 6 3 12
0 13 -7 6 -84 6 -147 -1 -143 -5 3 -12 1 -15 -5 -4 -6 -3 -10 2 -9 19 3 30 -2
30 -16 0 -8 -4 -12 -8 -9 -4 2 -11 0 -14 -6 -4 -6 -3 -10 2 -9 20 3 24 -2 13
-16 -10 -12 -10 -19 -2 -27 14 -14 16 -32 2 -23 -5 3 -3 -7 5 -21 12 -24 12
-29 -3 -41 -9 -7 -12 -13 -7 -12 23 3 27 -2 14 -17 -11 -13 -10 -17 4 -25 9
-6 17 -15 17 -20 0 -6 -6 -7 -12 -3 -10 6 -10 5 -1 -7 7 -8 12 -24 12 -34 0
-11 1 -34 3 -52 3 -18 0 -29 -6 -26 -5 4 -6 1 -1 -7 12 -20 14 -91 3 -83 -6 3
-5 -4 1 -15 14 -27 14 -35 -1 -26 -7 4 -8 3 -4 -4 13 -22 15 -54 5 -74 -8 -15
-8 -19 0 -14 15 10 14 -7 -2 -23 -7 -8 -7 -11 -1 -8 16 9 12 -26 -4 -39 -11
-8 -11 -12 2 -23 15 -12 15 -15 -1 -28 -10 -8 -13 -12 -6 -9 8 4 11 -4 11 -23
-1 -17 -4 -28 -8 -26 -4 2 -7 -2 -7 -10 0 -8 3 -12 7 -10 4 2 5 -17 3 -43 -2
-26 -4 -55 -4 -64 0 -11 -7 -15 -21 -13 -11 3 -17 1 -14 -3 4 -4 13 -7 19 -7
7 -1 11 -7 9 -15 -5 -23 -13 -84 -13 -103 0 -9 -4 -15 -9 -12 -5 3 -12 0 -16
-6 -4 -8 -3 -9 4 -5 7 4 13 2 13 -3 3 -21 4 -26 13 -40 7 -11 5 -13 -7 -8 -9
3 -18 3 -21 -1 -3 -4 5 -9 17 -9 32 -3 67 -24 60 -37 -4 -6 0 -5 9 1 8 7 18
10 21 6 4 -3 7 -1 7 4 0 12 25 11 37 -1 4 -4 3 -6 -2 -5 -14 4 -55 -11 -55
-20 0 -4 7 -8 15 -8 8 0 12 4 10 8 -3 4 2 9 10 13 8 3 15 0 15 -7 0 -8 4 -7 9
3 6 8 8 17 5 21 -2 4 0 10 6 14 10 6 14 -6 11 -35 -2 -13 0 -13 8 -1 5 8 7 21
4 30 -4 14 -3 14 9 0 11 -14 15 -14 26 -3 16 17 36 19 26 2 -5 -7 -3 -8 5 -3
22 13 -4 28 -28 16 -12 -7 -21 -8 -21 -2 0 5 12 12 28 16 15 3 36 14 46 23 11
9 16 12 13 6 -11 -19 23 -25 45 -10 l21 15 -21 -2 c-11 0 -18 -5 -16 -9 3 -4
0 -8 -5 -8 -6 0 -11 4 -11 9 0 14 22 26 43 23 10 -2 17 3 17 12 0 9 7 16 15
16 8 0 15 5 15 10 0 6 6 10 13 10 7 -1 4 -8 -8 -18 -11 -10 -21 -24 -23 -32
-2 -8 9 -2 23 14 14 17 23 36 20 44 -5 12 -3 13 10 2 13 -11 14 -10 10 2 -4 9
0 18 9 21 9 4 14 1 12 -6 -1 -7 2 -2 8 11 5 12 14 22 19 22 4 0 5 -6 1 -12 -6
-10 -5 -10 8 -1 8 7 18 11 22 8 3 -3 2 1 -4 7 -13 16 -13 38 1 38 5 0 7 -5 4
-10 -4 -6 -1 -9 7 -8 7 2 12 -4 10 -12 -2 -8 0 -11 4 -7 11 10 14 38 4 32 -4
-3 -10 1 -13 9 -4 9 2 12 19 10 13 -1 22 2 18 7 -3 5 -11 6 -17 2 -7 -4 -4 4
5 17 9 14 22 24 28 22 7 -2 10 3 7 12 -3 8 1 17 9 20 9 3 12 11 8 17 -5 8 -3
9 5 4 9 -5 10 -10 2 -18 -6 -6 -11 -16 -11 -21 0 -6 7 0 16 13 12 16 19 20 27
12 14 -14 27 -14 27 0 0 5 -4 8 -9 4 -5 -3 -12 -1 -16 5 -4 6 -11 8 -16 5 -5
-4 -9 -2 -9 3 0 6 7 12 15 16 8 3 14 0 12 -7 -1 -7 7 -11 21 -9 21 3 27 -5 23
-38 -2 -9 4 -6 14 8 18 24 41 29 48 10 3 -7 4 -3 4 8 -1 14 -6 20 -14 17 -7
-3 -13 -1 -13 5 0 6 8 9 17 7 10 -1 24 2 31 8 6 5 12 6 12 2 0 -4 12 0 26 10
15 9 23 12 20 6 -10 -16 10 -13 23 3 7 8 21 13 31 11 11 -2 22 0 25 5 3 5 13
6 22 3 10 -4 14 -2 10 4 -4 7 0 10 10 9 9 -2 20 -11 25 -22 6 -15 7 -13 4 9
l-3 28 25 -23 c14 -13 22 -17 18 -10 -4 6 -2 12 3 12 6 0 11 -5 11 -12 0 -6 2
-9 5 -6 3 3 3 13 -1 22 -5 13 -9 14 -20 5 -9 -7 -14 -8 -14 -1 0 19 25 19 51
1 20 -14 26 -15 26 -4 0 8 -4 12 -8 9 -4 -2 -10 0 -14 5 -3 6 6 8 21 5 19 -3
24 -1 18 8 -6 10 -4 10 7 2 17 -13 59 -16 59 -4 0 5 -9 7 -20 5 -11 -2 -20 1
-20 7 0 5 7 8 15 5 8 -4 17 -2 20 3 3 5 13 6 22 3 11 -4 14 -2 9 5 -4 7 1 10
14 7 11 -2 20 0 20 6 0 5 5 9 11 9 6 0 24 9 40 21 16 11 29 16 29 11 0 -6 -6
-13 -12 -15 -10 -4 -10 -6 0 -6 7 -1 10 -6 6 -13 -4 -7 -3 -8 5 -4 6 4 9 11 6
15 -6 11 30 43 38 34 4 -3 7 0 7 7 0 9 5 7 16 -6 12 -15 15 -16 10 -2 -2 9 2
22 10 28 8 7 14 10 14 6 0 -4 11 1 25 10 14 9 25 13 25 8 0 -4 7 1 16 12 8 10
13 14 10 8 -3 -7 1 -15 10 -18 11 -4 15 -2 11 7 -3 8 1 14 9 14 8 0 14 -3 14
-7 0 -9 42 -7 58 3 6 5 12 5 12 1 0 -3 7 -1 15 6 8 7 15 9 15 4 0 -5 5 -2 11
6 9 13 10 13 6 -1 -3 -9 -1 -22 5 -30 8 -11 9 -10 4 5 -5 14 -2 17 10 12 14
-5 15 -4 5 8 -9 11 -9 16 0 22 8 4 9 3 5 -4 -8 -13 6 -16 18 -5 4 4 19 8 34
10 17 1 21 0 12 -5 -8 -4 -16 -15 -18 -26 -2 -10 1 -15 7 -12 5 4 13 1 17 -5
4 -8 3 -9 -4 -5 -7 4 -12 2 -12 -3 0 -6 14 -11 30 -11 17 0 30 -5 30 -11 0 -5
-6 -7 -12 -3 -9 5 -9 2 1 -9 14 -18 22 -22 20 -9 -4 22 5 27 47 28 26 1 40 -2
33 -7 -7 -4 -18 -5 -24 -2 -5 4 -7 2 -2 -2 9 -10 57 -13 51 -3 -8 13 17 20 30
8 11 -8 15 -8 19 2 4 9 6 10 6 1 1 -7 7 -10 15 -7 8 3 17 1 20 -5 4 -6 13 -8
20 -5 8 3 17 1 20 -5 4 -6 14 -8 24 -5 14 5 14 4 2 -4 -8 -6 -17 -9 -20 -7 -3
2 -7 -6 -7 -18 -2 -17 0 -19 7 -7 14 22 63 19 75 -4 12 -22 35 -33 35 -16 0 6
-4 9 -9 6 -5 -3 -11 1 -15 9 -3 9 0 15 9 15 8 0 15 -4 15 -10 0 -5 9 -10 19
-10 11 0 23 -5 26 -10 4 -6 10 -8 15 -5 5 3 12 0 15 -6 4 -5 14 -8 22 -5 9 4
11 2 7 -6 -5 -7 -2 -9 8 -6 19 8 45 -7 29 -16 -6 -4 -11 -2 -11 4 0 6 -5 8
-11 4 -17 -10 11 -24 30 -15 14 7 24 7 49 2 4 -1 -1 -8 -11 -15 -16 -12 -16
-14 -2 -20 9 -3 14 -2 12 2 -3 4 1 13 9 20 10 9 14 9 14 1 0 -6 6 -9 14 -6 9
4 12 -2 10 -19 -1 -13 2 -24 7 -24 6 0 9 8 7 18 -2 11 2 16 12 13 8 -2 22 -4
30 -6 8 -1 14 -8 12 -15 -1 -6 2 -9 7 -6 5 4 14 -2 20 -11 6 -10 11 -13 11 -7
0 5 -5 15 -11 21 -7 7 -3 12 15 15 23 5 24 3 14 -10 -11 -13 -10 -15 5 -9 42
16 67 19 67 8 0 -6 5 -11 11 -11 5 0 7 5 3 12 -4 7 -3 8 5 4 9 -6 9 -11 0 -22
-8 -9 -8 -14 -1 -14 6 0 15 7 20 16 8 14 10 14 25 -1 9 -9 21 -13 27 -10 6 3
13 -1 16 -9 3 -9 9 -14 13 -12 3 2 17 -1 31 -7 34 -14 82 -16 98 -4 6 5 12 6
12 1 0 -4 11 3 25 16 14 13 28 20 32 17 3 -4 12 -2 19 3 6 6 16 10 20 8 5 -1
20 4 33 11 13 7 21 9 17 3 -3 -5 1 -12 9 -16 8 -3 17 0 21 6 4 7 3 8 -4 4 -7
-4 -12 -3 -12 3 0 5 5 11 11 13 17 6 20 58 3 58 -8 0 -14 5 -14 11 0 5 -5 7
-12 3 -7 -4 -8 -3 -4 4 5 8 -3 11 -24 8 -17 -2 -28 -1 -25 2 2 3 -1 12 -8 20
-11 14 -9 14 13 0 14 -8 35 -14 47 -13 12 1 20 -1 18 -5 -3 -4 2 -11 11 -14
23 -9 24 -8 18 11 -5 14 -4 15 4 4 5 -7 14 -11 20 -7 6 3 14 1 17 -5 4 -5 13
-8 20 -5 16 6 39 -19 31 -33 -3 -5 0 -11 8 -14 10 -4 12 0 9 14 -3 10 0 19 6
19 6 0 11 -7 11 -15 0 -8 5 -15 11 -15 5 0 8 4 5 9 -9 14 22 7 37 -8 6 -7 8
-12 2 -11 -19 4 -35 0 -35 -9 0 -10 14 -9 42 4 10 4 15 12 11 19 -4 6 1 5 10
-2 9 -8 22 -10 28 -6 8 4 9 3 5 -4 -4 -7 -2 -12 3 -12 6 0 11 5 11 11 0 6 7 9
15 6 8 -4 17 -2 20 3 8 13 25 13 25 -1 0 -5 -4 -7 -10 -4 -6 4 -7 -1 -3 -11 4
-11 8 -13 11 -6 2 7 8 12 13 12 6 0 7 -6 3 -12 -4 -7 -4 -10 1 -6 4 4 15 2 24
-5 14 -10 14 -10 3 5 -9 11 -10 18 -2 23 6 3 8 10 6 14 -3 4 5 7 17 6 14 -1
21 -8 21 -19 -2 -13 1 -14 12 -5 8 6 11 15 8 20 -3 5 2 6 11 3 14 -6 13 -10
-7 -32 -13 -15 -16 -21 -7 -14 9 6 20 8 24 4 5 -4 5 -1 1 6 -9 16 6 16 23 0
11 -11 12 -10 6 1 -6 11 -4 13 10 7 14 -5 16 -4 7 7 -9 11 -7 13 8 12 11 -1
23 -4 26 -8 4 -4 13 -2 19 3 9 7 17 5 26 -7 12 -15 12 -16 -1 -8 -13 8 -13 7
-1 -8 18 -22 20 -22 17 7 -2 19 1 23 16 21 10 -2 24 -7 31 -11 7 -5 6 0 -3 12
-8 10 -10 16 -6 12 5 -4 16 -2 24 5 13 10 14 8 8 -11 -5 -13 -3 -22 3 -22 6 0
10 3 10 7 -1 5 -1 16 0 27 1 15 4 16 15 7 11 -9 16 -9 22 0 4 7 3 9 -3 6 -6
-4 -14 0 -17 9 -3 8 -2 12 4 9 6 -3 10 -1 10 4 0 15 33 14 48 -1 7 -7 12 -8
12 -4 0 5 -7 14 -15 20 -14 10 -13 13 5 28 11 10 20 14 20 10 0 -4 10 4 21 18
11 14 18 20 15 14 -3 -7 3 -14 14 -17 17 -4 18 -2 9 14 -5 11 -6 19 -2 18 19
-3 34 2 29 9 -3 5 1 9 8 9 8 0 12 -7 8 -15 -3 -10 -1 -13 6 -8 7 4 12 14 12
22 0 8 7 14 16 14 14 0 15 -2 3 -17 -12 -16 -12 -17 2 -6 9 7 19 9 24 5 4 -4
3 3 -4 15 -11 21 2 44 16 29 3 -3 12 2 20 10 8 8 19 12 24 9 5 -4 9 -1 9 6 0
7 3 9 7 6 3 -4 12 -2 20 5 11 8 12 7 7 -6 -3 -9 -2 -16 4 -16 6 0 9 11 8 24
-2 19 3 26 20 30 25 7 32 30 13 42 -6 3 -9 14 -6 24 6 23 -8 47 -17 31 -4 -6
-2 -11 4 -11 6 0 8 -5 4 -11 -4 -8 -10 -6 -17 6 -12 22 3 33 41 30 15 -1 30 3
34 9 5 7 8 7 8 -1 0 -7 5 -13 11 -13 5 0 8 4 5 8 -3 5 19 8 49 7 33 -1 52 2
49 7 -4 6 3 5 14 -1 24 -13 35 -14 28 -3 -2 4 15 7 39 8 24 0 42 -3 39 -8 -3
-4 -11 -5 -18 -2 -19 7 -27 -9 -14 -26 8 -12 9 -12 4 3 -7 21 2 22 26 0 16
-15 20 -15 36 0 22 20 33 22 44 5 8 -10 9 -10 5 2 -2 8 -10 14 -16 12 -6 -1
-11 3 -11 8 0 6 11 8 25 4 17 -4 25 -2 25 7 0 9 3 10 8 4 11 -15 42 -18 42 -4
0 7 6 5 13 -6 10 -13 16 -15 21 -6 4 6 12 9 17 5 5 -3 6 -10 3 -16 -4 -6 -2
-8 4 -5 12 8 10 32 -3 44 -4 4 -5 2 0 -6 6 -10 4 -12 -5 -6 -7 4 -16 2 -21 -6
-6 -10 -9 -10 -9 -2 0 7 9 17 20 23 11 6 20 8 20 5 0 -4 7 0 15 8 8 9 19 17
25 19 6 2 12 17 13 33 1 23 -2 30 -15 29 -10 -1 -18 2 -18 7 0 6 -9 5 -20 -1
-15 -8 -20 -8 -20 2 0 8 -3 9 -8 3 -10 -15 -174 -16 -165 -1 4 6 0 5 -9 -2
-17 -14 -39 -13 -50 3 -5 6 -8 5 -8 -3 0 -8 -13 -12 -40 -10 -22 2 -40 6 -40
9 0 8 -38 5 -46 -4 -4 -3 -15 -2 -25 3 -10 6 -22 10 -26 9 -21 -4 -33 2 -27
12 5 8 2 9 -10 2 -10 -5 -38 -6 -64 -2 -26 4 -89 6 -140 6 -53 -1 -94 2 -96 8
-3 6 -5 4 -5 -2 -1 -7 -6 -13 -12 -13 -5 0 -7 6 -3 13 4 6 -2 3 -14 -7 -22
-19 -25 -17 -23 19 1 18 0 18 -9 -2 -12 -28 -20 -29 -50 -3 -13 11 -18 20 -11
20 7 0 10 4 6 9 -3 6 4 8 15 6 11 -2 20 0 20 6 0 5 6 9 14 9 8 0 17 6 19 13 4
10 6 10 6 0 1 -7 6 -13 11 -13 6 0 9 3 9 8 -4 21 3 23 27 7 26 -16 26 -16 19
7 -4 16 -3 19 3 9 8 -10 10 -11 14 -1 2 7 12 -2 21 -21 10 -21 17 -27 17 -16
0 10 5 15 10 12 6 -4 8 -10 5 -15 -3 -5 0 -12 6 -16 7 -4 10 -3 6 2 -7 12 13
38 32 42 12 3 12 0 1 -13 -11 -13 -10 -15 1 -11 8 3 28 7 45 9 28 4 31 2 28
-19 -1 -13 2 -24 7 -24 6 0 9 6 8 13 -3 26 2 36 15 31 8 -3 17 -1 21 5 3 6 11
11 16 11 6 0 7 -5 3 -12 -4 -7 -3 -8 5 -4 6 4 8 12 5 18 -5 7 -1 9 9 5 11 -4
14 -2 10 8 -3 8 -10 12 -15 9 -6 -4 -2 5 7 20 10 14 14 26 11 26 -4 0 -2 9 4
20 6 11 16 20 23 19 9 0 9 -2 0 -6 -18 -7 -16 -20 2 -20 8 0 13 3 10 5 -3 3 3
11 13 19 15 11 15 12 1 7 -34 -11 -28 15 10 49 22 20 36 38 33 42 -4 4 -2 6 3
4 6 -1 23 3 38 9 16 7 34 12 40 12 7 1 22 9 34 19 25 21 24 58 -1 53 -9 -2
-16 2 -16 8 0 5 -7 10 -15 10 -8 0 -15 4 -15 9 0 8 -11 12 -62 26 -5 2 -22 3
-39 4 -21 1 -28 5 -23 14 5 9 4 9 -5 1 -14 -13 -75 -1 -98 18 -7 6 -13 7 -13
2 0 -5 -7 0 -16 11 -8 11 -17 19 -20 17 -2 -1 -18 4 -34 13 -31 16 -54 48 -43
59 3 3 2 6 -3 6 -6 0 -19 8 -30 18 -10 9 -28 18 -39 20 -42 7 -160 8 -170 2
-18 -12 -75 5 -75 22 0 6 3 8 7 5 3 -4 13 -1 21 6 13 9 14 9 8 0 -4 -7 -3 -13
1 -13 5 0 15 6 22 13 11 10 14 10 18 0 3 -7 9 -13 14 -13 6 0 8 4 4 9 -3 5 0
13 6 17 7 4 9 3 6 -3 -4 -6 0 -16 8 -23 12 -10 18 -10 30 0 9 7 14 19 11 26
-10 26 13 24 35 -3 14 -18 20 -21 15 -9 -5 15 -2 17 14 13 12 -3 18 -1 14 5
-3 5 -15 8 -25 5 -11 -3 -19 -1 -19 4 0 5 5 9 10 9 6 0 15 11 22 25 6 13 15
22 21 18 6 -4 7 -1 1 8 -4 8 -9 19 -10 24 -1 6 -5 24 -8 42 -6 34 16 69 36 57
7 -4 8 -2 4 5 -4 6 -12 9 -17 6 -5 -4 -4 5 2 19 7 14 16 23 22 19 5 -3 4 -9
-3 -13 -8 -5 -8 -10 -2 -14 5 -3 13 1 16 10 3 8 11 12 17 8 8 -4 9 -3 5 5 -4
6 -12 9 -17 6 -5 -4 -9 1 -9 10 0 11 5 15 15 12 18 -7 30 9 14 19 -8 5 -9 3
-4 -6 6 -9 4 -11 -4 -5 -9 5 -10 10 -2 18 7 7 15 6 27 -4 16 -13 16 -12 4 8
-12 19 -10 26 21 68 39 53 83 106 75 88 -4 -6 -3 -14 2 -17 4 -2 9 7 10 21 1
14 7 32 12 39 7 7 7 15 2 18 -14 9 -21 56 -9 63 6 3 7 1 3 -5 -4 -7 -2 -12 3
-12 15 0 14 27 -1 33 -7 3 -2 6 12 6 20 1 22 3 10 12 -11 7 -7 9 17 5 18 -2
35 0 38 4 3 5 -3 7 -15 5 -11 -2 -22 0 -25 6 -4 5 -2 9 3 9 5 0 19 9 32 20
l23 20 -38 15 c-20 9 -40 14 -43 11 -3 -4 -14 2 -24 11 -18 16 -18 16 -12 -3
7 -17 6 -18 -11 -4 -11 9 -16 10 -11 3 4 -8 2 -13 -8 -13 -8 0 -23 -3 -33 -6
-15 -5 -15 -4 -3 5 9 7 11 11 3 11 -7 0 -16 -7 -20 -15 -5 -8 -17 -16 -28 -18
-11 -1 -25 -6 -32 -10 -6 -4 -14 -1 -16 5 -4 9 -6 8 -6 -3 -1 -14 -39 -40 -66
-45 -5 -1 -13 -3 -17 -4 -5 -1 -11 -3 -15 -4 -5 -1 -26 -10 -47 -19 -22 -10
-49 -15 -60 -12 -15 5 -17 4 -8 -3 10 -7 -12 -18 -77 -39 -59 -19 -92 -26 -95
-19 -3 6 -5 6 -5 -2 -1 -7 -6 -10 -11 -7 -8 5 -7 12 2 23 10 12 10 14 1 8 -8
-4 -13 -2 -13 4 0 7 7 10 15 6 10 -3 15 1 15 12 0 15 2 15 10 2 8 -12 10 -11
10 7 0 15 9 24 31 32 26 9 29 9 20 -3 -9 -11 -9 -16 0 -22 7 -4 9 -3 5 4 -7
12 31 38 50 34 7 -1 15 5 18 14 5 14 4 15 -9 4 -8 -7 -15 -9 -15 -5 0 4 -6 2
-14 -4 -10 -8 -16 -9 -21 -1 -5 8 13 15 37 12 3 -1 11 5 18 13 6 7 17 12 25 9
7 -3 16 0 21 7 5 8 3 10 -5 4 -9 -5 -9 -2 1 14 10 17 14 18 21 6 4 -8 5 -20 2
-25 -15 -24 4 -7 21 18 15 23 15 25 1 13 -10 -7 -17 -9 -17 -3 0 15 22 21 42
11 9 -5 19 -5 22 -1 3 5 24 8 46 7 22 -1 43 2 46 7 3 5 12 4 19 -2 9 -7 15 -8
19 -1 4 6 13 8 20 5 7 -3 16 2 20 11 3 9 10 14 15 10 6 -3 25 8 44 25 19 16
37 27 41 23 3 -3 6 -1 6 5 0 6 7 9 15 6 8 -4 15 -1 15 5 0 7 10 6 28 -5 25
-15 26 -15 7 1 -20 16 -20 17 -1 30 10 8 23 12 27 9 5 -3 6 2 3 10 -3 9 -1 16
6 16 6 0 9 4 6 9 -6 9 18 34 26 26 8 -8 69 49 72 67 1 9 11 27 21 40 11 13 13
17 5 11 -23 -21 -28 -15 -20 27 4 22 5 40 1 40 -3 0 2 5 12 11 14 8 15 14 7
24 -9 10 -6 19 9 34 12 12 21 25 21 31 0 5 8 14 18 19 9 6 11 11 5 11 -10 0
-10 6 -1 25 9 19 14 22 20 13 7 -10 8 -9 5 2 -2 8 -10 14 -16 13 -17 -4 -13
14 5 21 22 8 24 8 22 -5 -2 -6 4 -13 12 -14 10 -2 17 5 17 17 2 20 1 20 -13 2
-14 -18 -14 -18 -4 4 6 12 15 20 21 17 5 -4 9 -2 9 3 0 6 16 19 36 31 19 12
32 17 29 11 -3 -5 -1 -10 5 -10 6 0 8 -4 5 -10 -3 -5 -1 -10 5 -10 7 0 9 8 5
20 -5 16 -3 19 11 13 11 -4 15 -3 11 4 -8 13 20 26 35 16 6 -3 8 -1 4 5 -3 5
-1 12 5 14 24 8 -5 36 -44 43 -23 4 -49 9 -57 11 -45 10 -100 9 -142 -2z m-21
-183 c-1 -15 -4 -17 -14 -10 -7 6 -18 7 -24 3 -8 -5 -9 -3 -5 5 5 7 14 10 22
7 8 -3 14 -1 14 4 0 6 2 10 4 10 3 0 4 -9 3 -19z m28 0 c3 -5 1 -12 -5 -16 -5
-3 -10 1 -10 9 0 18 6 21 15 7z m-2639 -250 c-3 -5 5 -8 19 -8 14 0 22 3 19 8
-3 5 0 9 6 9 7 0 10 -7 6 -17 -5 -15 -4 -15 9 1 13 17 20 11 13 -11 -5 -12
-31 -13 -45 -1 -9 7 -13 7 -13 -2 0 -10 -3 -10 -15 0 -13 11 -12 30 1 30 3 0
3 -4 0 -9z m109 -1 c3 -5 1 -10 -4 -10 -6 0 -11 5 -11 10 0 6 2 10 4 10 3 0 8
-4 11 -10z m42 -16 c-3 -3 -12 -4 -19 -1 -8 3 -5 6 6 6 11 1 17 -2 13 -5z
m-59 -213 c2 -1 0 -6 -3 -11 -4 -7 -11 -8 -18 -1 -8 6 -16 5 -23 -3 -8 -9 1
-12 40 -11 59 2 122 -30 105 -52 -6 -6 -18 -9 -27 -6 -9 3 -14 3 -11 -1 10
-11 50 -16 44 -5 -4 5 -4 9 -1 9 2 0 12 3 22 7 12 4 15 3 10 -5 -7 -12 -20
-71 -14 -62 2 3 10 14 18 24 12 16 12 18 1 11 -9 -5 -12 -4 -7 3 9 15 46 -7
46 -26 0 -7 4 -10 10 -7 5 3 7 0 4 -8 -3 -8 2 -21 10 -30 9 -9 16 -22 16 -29
-1 -8 -6 -6 -15 6 -8 11 -17 17 -19 15 -3 -3 6 -18 19 -33 23 -27 25 -37 16
-99 0 -5 -4 -6 -8 -4 -5 3 -9 -24 -11 -59 -1 -35 1 -64 6 -64 5 0 9 -7 9 -15
0 -11 -6 -13 -20 -9 -13 4 -17 2 -13 -5 4 -6 13 -11 21 -11 8 0 17 -5 21 -12
5 -8 2 -9 -11 -4 -15 5 -16 4 -5 -9 10 -12 10 -18 -1 -32 -10 -11 -10 -14 -1
-9 6 4 12 2 12 -3 0 -6 -5 -11 -11 -11 -5 0 -7 -5 -4 -10 17 -28 -33 -73 -81
-73 -8 0 -12 -2 -9 -5 2 -3 -4 -15 -14 -28 -11 -14 -18 -37 -17 -54 1 -17 -1
-30 -6 -30 -4 0 -5 -6 -2 -13 2 -7 -6 -23 -19 -36 l-25 -22 -6 26 c-6 24 -27
32 -28 10 0 -23 -20 -34 -45 -24 -14 5 -31 5 -40 0 -19 -10 -55 -3 -47 10 9
15 -23 10 -39 -5 -12 -12 -18 -13 -32 -2 -10 7 -15 18 -12 23 4 6 1 13 -6 16
-7 2 -13 18 -15 33 -2 28 -57 88 -72 79 -4 -2 -16 2 -26 10 -10 8 -27 15 -37
15 -10 0 -15 5 -12 10 3 6 -1 10 -10 10 -11 0 -15 5 -11 16 3 8 2 13 -3 10
-12 -8 -27 33 -30 82 -2 26 2 42 9 42 6 0 8 5 5 10 -4 6 -1 17 5 25 7 8 9 15
5 15 -4 0 -2 6 4 14 9 11 9 15 0 18 -14 5 -21 57 -9 78 5 8 10 11 10 7 0 -4 6
-2 14 5 8 7 12 16 9 20 -2 5 8 20 24 34 15 14 22 24 14 22 -7 -2 -15 5 -16 15
-3 13 7 20 40 28 27 7 50 20 59 35 20 30 5 39 -24 14 -13 -11 -26 -20 -29 -21
-31 -4 -45 -10 -60 -28 -10 -12 -23 -21 -28 -21 -6 0 -9 -11 -8 -24 3 -21 -13
-62 -16 -43 -5 24 -4 33 6 40 6 5 4 7 -5 4 -8 -2 -15 -15 -15 -29 0 -15 -3
-29 -6 -33 -7 -7 -4 58 5 94 7 29 14 37 23 27 4 -4 1 -11 -7 -16 -17 -11 -9
-13 15 -4 14 6 14 8 -2 27 -11 12 -12 17 -4 12 11 -6 13 -4 8 8 -3 9 0 18 9
21 10 4 12 2 8 -6 -5 -7 -3 -8 5 -4 7 5 10 15 7 23 -3 8 -2 12 3 9 5 -3 12 1
15 9 3 8 11 14 18 13 7 -2 12 2 11 8 -1 6 3 11 10 11 7 0 20 4 30 8 10 4 17 3
17 -5 0 -6 -4 -8 -10 -5 -6 3 -7 -1 -4 -10 6 -14 8 -14 19 2 7 10 11 21 9 25
-2 4 1 10 7 14 7 4 9 3 5 -4 -3 -6 -1 -14 6 -19 16 -9 42 -14 34 -6 -3 3 2 12
12 20 16 12 16 13 0 7 -11 -4 -18 -1 -18 6 0 6 4 9 9 5 5 -3 12 -1 16 4 3 5
14 8 25 6 11 -2 22 0 24 4 4 6 128 7 144 2z m-223 -30 c3 -5 1 -12 -5 -16 -5
-3 -10 1 -10 9 0 18 6 21 15 7z m1759 -189 c12 -2 16 1 10 9 -4 8 -3 10 5 5
16 -10 2 -29 -16 -22 -10 4 -13 2 -10 -7 4 -10 -3 -13 -21 -12 -15 0 -26 4
-25 8 5 15 28 35 33 28 3 -3 13 -7 24 -9z m151 -49 c-1 -10 -8 -17 -14 -15 -6
1 -11 -3 -11 -9 0 -5 -4 -8 -9 -4 -6 3 -14 -3 -20 -12 -6 -10 -11 -14 -11 -8
0 10 50 62 62 64 3 1 5 -7 3 -16z m-106 -75 c-19 -18 -36 -29 -38 -23 -2 5 1
11 8 13 6 2 8 9 4 15 -3 7 -3 9 2 5 4 -4 17 -1 29 7 33 24 32 17 -5 -17z
m-239 -2 c0 -3 -4 -8 -10 -11 -5 -3 -10 -1 -10 4 0 6 5 11 10 11 6 0 10 -2 10
-4z m161 -43 c-12 -20 -14 -14 -5 12 4 9 9 14 11 11 3 -2 0 -13 -6 -23z m-21
-3 c0 -5 -5 -10 -11 -10 -5 0 -7 5 -4 10 3 6 8 10 11 10 2 0 4 -4 4 -10z
m-1343 -330 c-1 -27 -6 -50 -12 -50 -5 0 -3 -5 5 -10 10 -6 11 -10 3 -10 -7 0
-13 -5 -13 -11 0 -5 6 -7 13 -3 10 6 10 4 0 -7 -7 -7 -13 -19 -13 -27 0 -8 -9
-27 -21 -43 -11 -16 -17 -29 -13 -29 3 0 1 -7 -6 -15 -7 -8 -9 -15 -4 -15 5 0
-4 -8 -21 -19 -21 -12 -32 -15 -37 -7 -6 8 -8 8 -8 0 0 -12 -13 -14 -98 -14
-37 0 -75 6 -92 15 -17 9 -30 12 -30 8 0 -15 -29 33 -30 50 0 9 -9 27 -20 40
-42 47 -48 56 -42 61 3 3 0 6 -7 6 -7 0 -10 4 -6 10 3 5 13 7 23 4 10 -4 13
-3 6 3 -6 4 -10 18 -9 30 1 19 -1 21 -13 10 -13 -10 -14 -9 -2 12 11 21 10 23
-4 18 -16 -6 -22 4 -9 16 11 12 52 -34 46 -51 -4 -10 -2 -13 6 -8 6 4 11 4 10
-1 -3 -13 25 -73 33 -73 4 0 8 -5 8 -11 0 -5 -6 -7 -12 -3 -7 4 -9 3 -5 -1 4
-5 15 -10 24 -11 9 -2 27 -5 39 -8 14 -4 26 -1 31 7 7 11 12 11 33 -1 l25 -13
-27 4 c-15 2 -25 0 -22 -4 3 -5 16 -9 30 -9 13 0 24 -3 24 -8 0 -4 14 -8 31
-8 20 -1 27 1 18 6 -7 5 -17 6 -21 4 -15 -9 -8 13 7 26 13 11 18 11 28 0 10
-10 8 -12 -6 -7 -10 4 -16 3 -13 -2 3 -5 17 -8 32 -8 18 0 22 2 13 8 -8 5 -11
9 -7 9 3 0 14 3 24 7 13 5 16 3 11 -10 -4 -11 -2 -14 8 -11 8 3 12 11 10 17
-3 7 10 29 29 49 28 31 33 43 30 78 -2 28 1 38 8 34 7 -5 9 -1 5 9 -3 10 -2
17 3 17 4 0 8 -22 7 -50z m452 -17 c15 -16 6 -17 -21 -2 -11 6 -18 7 -15 2 4
-5 0 -10 -8 -10 -8 0 -11 5 -8 11 4 6 2 7 -3 3 -5 -5 -9 -14 -9 -19 0 -6 -6
-13 -14 -16 -8 -3 -11 0 -7 6 3 6 2 13 -3 16 -10 7 -9 -20 2 -30 4 -4 15 0 26
10 17 15 19 15 25 1 3 -9 10 -14 15 -11 5 4 11 3 14 -1 2 -5 2 -2 1 5 -2 6 2
12 9 12 14 0 16 -50 2 -51 -5 0 -1 -4 10 -9 13 -6 15 -9 5 -9 -13 -1 -13 -2 0
-11 13 -9 13 -11 0 -21 -12 -8 -10 -9 9 -4 17 5 22 4 18 -6 -2 -8 -11 -12 -18
-11 -8 2 -10 0 -6 -5 5 -4 13 -9 18 -9 22 -3 23 -5 9 -14 -12 -8 -12 -10 -1
-10 8 0 20 8 27 18 13 16 13 16 14 0 0 -10 4 -18 9 -18 17 0 1 -53 -22 -73
-22 -19 -25 -19 -127 0 -39 7 -72 4 -86 -8 -7 -6 -18 -8 -24 -4 -5 3 -10 2
-10 -2 0 -5 -21 -19 -46 -31 -27 -13 -43 -17 -39 -10 4 7 -1 4 -9 -6 -9 -11
-16 -16 -16 -12 0 4 -13 -2 -30 -14 -16 -12 -30 -18 -30 -15 0 4 -7 -1 -16
-10 -10 -9 -25 -14 -36 -12 -10 3 -16 2 -13 -2 6 -11 -44 -33 -57 -25 -7 4 -8
2 -4 -5 7 -11 -32 -33 -46 -24 -4 2 -5 -4 -1 -13 4 -12 3 -15 -5 -10 -7 4 -12
2 -12 -4 0 -6 -4 -9 -9 -6 -5 3 -11 -4 -14 -16 -5 -19 -8 -20 -23 -7 -10 8
-15 9 -11 2 4 -7 -5 -15 -23 -22 -17 -5 -30 -7 -30 -4 0 3 -6 0 -13 -6 -8 -6
-17 -8 -20 -4 -4 3 -7 1 -7 -6 0 -7 -4 -9 -10 -6 -5 3 -10 1 -10 -6 0 -7 -3
-10 -6 -7 -3 3 -17 -5 -30 -17 -14 -13 -32 -21 -40 -18 -8 3 -14 0 -14 -7 0
-7 -7 -10 -16 -6 -8 3 -12 2 -9 -4 3 -5 -7 -13 -22 -16 -15 -4 -38 -14 -50
-22 -13 -8 -23 -11 -23 -8 0 4 -10 1 -22 -6 -13 -7 -25 -13 -28 -13 -3 -1 -22
-9 -43 -18 -21 -9 -45 -13 -54 -10 -11 4 -14 3 -9 -5 6 -11 -5 -17 -26 -13 -5
0 -8 -4 -8 -10 0 -5 -5 -7 -10 -4 -6 3 -13 -1 -16 -10 -4 -9 -13 -14 -20 -11
-7 3 -16 0 -20 -6 -4 -7 -3 -8 4 -4 18 11 14 -12 -5 -32 -22 -23 -27 -41 -15
-56 24 -28 -17 -67 -73 -70 -29 -2 -56 24 -46 43 7 13 8 51 2 81 -1 3 -19 16
-40 30 -22 13 -37 28 -34 34 4 5 -1 7 -10 3 -19 -7 -44 28 -27 38 6 4 8 10 5
15 -3 5 0 12 6 16 8 4 9 3 5 -4 -4 -7 -1 -12 9 -12 10 0 13 5 9 13 -4 6 2 4
14 -6 11 -11 19 -27 17 -38 -2 -11 0 -17 5 -14 9 6 8 24 -3 43 -5 6 -4 12 2
12 5 0 13 -4 16 -10 3 -5 12 -10 18 -10 7 0 3 7 -8 16 -11 8 -25 12 -32 10 -7
-3 -13 -1 -13 4 0 6 11 10 25 10 14 0 25 -4 25 -10 0 -5 7 -10 16 -10 8 0 12
-4 9 -10 -3 -5 -1 -10 5 -10 6 0 8 -5 4 -12 -4 -7 -3 -8 4 -4 6 4 8 14 5 24
-4 12 0 11 14 -5 20 -23 40 -32 28 -13 -3 6 3 10 15 10 12 0 19 4 16 8 -3 5 1
9 9 9 22 0 18 -12 -7 -25 l-23 -10 23 1 c15 1 25 9 28 24 4 13 10 20 16 17 5
-3 7 -12 4 -20 -3 -7 -1 -16 5 -19 5 -4 9 -3 8 2 -4 22 3 32 19 27 14 -5 14
-4 2 4 -8 6 -19 8 -25 4 -5 -3 -4 2 4 11 7 9 17 15 21 12 5 -3 11 -1 15 5 8
13 25 13 25 0 0 -5 -3 -9 -8 -7 -4 1 -8 -1 -10 -5 -5 -16 10 -8 33 16 12 13
20 28 17 31 -4 3 2 3 12 -1 15 -6 17 -4 11 6 -5 9 -4 11 4 6 6 -4 9 -11 6 -16
-3 -5 0 -12 7 -16 7 -4 10 -4 6 1 -4 4 0 14 10 21 14 11 20 10 35 -9 18 -22
18 -21 3 10 -16 32 -13 40 14 38 8 0 18 4 22 9 4 6 10 7 15 3 11 -11 -17 -26
-40 -21 -11 2 -17 1 -14 -2 3 -3 7 -4 10 -2 2 2 11 -3 20 -10 14 -12 18 -9 31
16 8 16 14 31 11 33 -2 2 11 5 28 6 17 1 35 10 40 18 8 15 11 15 35 -1 15 -9
24 -13 20 -9 -4 5 -2 15 5 23 9 13 9 14 0 8 -7 -4 -13 -4 -13 1 1 14 69 41 74
29 2 -6 5 -3 5 7 1 11 6 15 12 11 6 -3 15 -1 19 7 7 10 11 10 24 -1 14 -11 16
-10 9 6 -6 16 -5 17 9 6 13 -10 18 -10 24 -1 4 8 3 9 -4 5 -8 -5 -10 -2 -6 8
3 9 10 14 14 11 4 -3 13 2 20 10 14 17 45 21 35 5 -4 -6 -11 -7 -17 -4 -7 5
-8 2 -3 -6 5 -8 4 -11 -3 -6 -18 11 -25 -15 -8 -30 9 -8 11 -9 6 -2 -12 15
-13 31 -1 24 5 -3 14 1 21 10 7 8 18 13 25 11 6 -3 12 5 13 16 1 18 -1 19 -9
7 -7 -10 -9 -11 -7 -2 2 8 6 12 10 10 3 -2 15 6 27 16 12 11 21 16 21 11 0 -4
8 -1 17 6 11 10 14 10 9 2 -12 -22 5 -14 24 10 19 24 70 35 70 14 0 -8 3 -7 9
2 11 18 41 24 41 8 0 -5 3 -7 6 -4 4 4 1 14 -6 22 -11 13 -10 18 6 29 10 8 21
12 24 9 3 -3 -1 -8 -7 -10 -15 -5 -17 -23 -4 -23 5 0 13 10 17 22 9 29 34 47
53 40 9 -3 12 -1 7 6 -4 6 1 23 10 37 14 21 19 23 33 13 9 -7 13 -8 8 -3 -4 4
0 19 8 31 14 22 14 23 -2 17 -16 -5 -15 -4 1 9 12 10 16 20 11 28 -6 10 -4 12
10 6 14 -5 15 -4 7 7 -16 19 -8 53 13 49 9 -2 15 0 12 5 -9 14 59 10 72 -4z
m-1228 -30 c-7 -12 -10 -14 -11 -4 0 11 -4 11 -19 -3 -21 -19 -61 -29 -61 -15
0 5 12 9 26 9 14 0 23 4 19 10 -4 6 -11 7 -17 4 -6 -4 -8 -2 -5 3 4 6 20 9 37
8 16 -1 30 2 30 8 0 6 3 8 6 4 3 -3 1 -14 -5 -24z m1219 13 c0 -3 -4 -8 -10
-11 -5 -3 -10 -1 -10 4 0 6 5 11 10 11 6 0 10 -2 10 -4z m-1165 -75 c12 -36
12 -40 -3 -44 -12 -3 -10 -5 6 -6 24 -1 29 -19 10 -41 -7 -8 -3 -6 8 3 17 14
23 15 26 5 3 -7 -2 -19 -11 -27 -9 -7 -3 -5 13 4 17 10 25 12 21 4 -6 -9 -2
-11 13 -7 12 4 26 0 33 -8 6 -8 15 -12 19 -9 5 3 11 1 15 -5 4 -6 11 -7 17 -4
7 4 8 2 4 -5 -6 -9 -11 -9 -22 0 -8 6 -14 7 -14 3 0 -5 9 -15 21 -22 12 -8 18
-9 15 -4 -8 14 46 10 62 -5 16 -16 16 -28 -1 -14 -8 6 -18 7 -22 3 -5 -4 -5
-1 0 6 6 11 3 12 -14 3 -27 -15 -27 -17 7 -17 16 1 26 -4 25 -11 -5 -22 15
-14 22 8 5 16 9 18 15 9 5 -8 13 -9 21 -4 12 6 12 5 1 -8 -10 -13 -10 -18 -1
-24 7 -4 9 -3 6 3 -12 19 17 20 50 3 31 -16 32 -18 16 -41 l-16 -24 25 23 c24
22 58 22 58 0 0 -6 -6 -6 -14 1 -20 17 -28 -2 -11 -25 15 -18 15 -18 8 1 -3
11 -3 17 2 13 4 -4 14 -3 22 3 17 14 17 -2 1 -20 -11 -11 -9 -11 9 0 12 7 19
17 17 21 -13 21 8 5 22 -17 13 -20 14 -28 4 -40 -14 -17 -80 -21 -80 -5 0 6
-3 9 -7 9 -24 -4 -53 3 -65 14 -7 8 -19 12 -26 9 -6 -2 -12 1 -12 7 0 6 -8 11
-18 11 -10 0 -22 3 -26 7 -4 4 -13 8 -19 8 -29 1 -117 30 -117 39 0 5 -3 7 -6
3 -3 -3 -25 0 -49 7 -42 13 -44 13 -94 -22 -46 -32 -54 -35 -88 -26 -30 7 -37
14 -35 29 2 16 1 17 -7 5 -5 -8 -13 -12 -16 -9 -10 11 -14 49 -5 49 5 0 7 9 5
20 -2 11 -1 19 3 18 4 -1 22 12 41 30 18 18 40 32 48 32 12 0 12 2 -1 16 -15
14 -20 28 -13 38 1 2 -6 13 -16 23 -16 19 -16 20 10 33 16 8 37 15 48 16 10 1
21 7 23 14 6 16 17 -2 37 -59z m2569 18 c-8 -14 -24 -10 -24 6 0 9 6 12 15 9
8 -4 12 -10 9 -15z m-1324 -79 c0 -5 -2 -10 -4 -10 -3 0 -8 5 -11 10 -3 6 -1
10 4 10 6 0 11 -4 11 -10z m1304 -99 c11 -10 16 -10 16 -2 0 7 5 9 11 6 5 -4
8 -12 6 -18 -4 -13 -87 -21 -87 -8 0 6 9 8 20 6 11 -2 22 0 24 4 3 4 -6 7 -20
7 -14 -1 -29 -8 -34 -15 -5 -9 -13 -10 -21 -5 -8 5 -17 9 -21 9 -5 0 -7 5 -5
10 1 6 15 9 30 7 16 -1 26 2 23 6 -8 14 40 8 58 -7z m-1668 -13 c4 -7 4 -10
-1 -6 -4 4 -14 3 -22 -3 -8 -8 -13 -8 -13 -1 0 6 6 13 13 15 6 3 13 6 14 6 1
1 5 -5 9 -11z m1808 -90 c-3 -4 -1 -8 5 -8 5 0 11 3 14 8 2 4 2 1 0 -6 -2 -9
3 -11 17 -7 12 4 20 2 20 -5 0 -7 8 -9 20 -5 15 5 20 2 19 -12 0 -10 -3 -13
-6 -6 -3 9 -10 10 -23 3 -13 -7 -21 -7 -25 1 -4 6 -12 8 -19 6 -18 -7 -49 8
-51 24 -2 8 5 15 15 15 10 0 16 -4 14 -8z m-47 -4 c-3 -3 -12 -4 -19 -1 -8 3
-5 6 6 6 11 1 17 -2 13 -5z m-2132 -14 c-3 -5 -1 -10 5 -10 6 0 8 -5 4 -11 -4
-8 -9 -7 -15 2 -7 12 -3 29 7 29 3 0 2 -4 -1 -10z m2320 -19 c-9 -8 -36 -10
-30 -2 2 4 11 8 20 8 8 0 13 -3 10 -6z m-2067 -94 c6 -5 17 -5 22 -2 6 3 10 1
10 -5 0 -6 3 -9 8 -7 4 3 15 2 24 -2 16 -6 16 -7 -3 -20 -19 -11 -21 -11 -16
2 4 10 0 14 -11 12 -9 -1 -22 2 -29 7 -12 10 -30 -8 -19 -19 3 -4 6 -1 6 6 0
7 5 9 10 6 6 -4 7 -12 3 -18 -4 -7 2 -5 12 3 17 13 18 13 13 0 -4 -12 1 -16
17 -16 13 0 22 3 19 7 -2 4 8 9 22 12 20 3 28 -1 36 -19 6 -12 18 -26 26 -29
12 -5 12 -1 -3 15 -10 11 -15 23 -12 27 4 3 7 1 7 -5 0 -7 6 -12 14 -12 8 0
18 -9 21 -20 4 -11 11 -18 16 -15 5 4 9 1 9 -5 0 -6 5 -8 12 -4 8 5 5 11 -10
17 -12 6 -22 14 -22 19 0 4 8 4 18 -1 26 -14 62 -27 82 -30 6 0 10 -6 10 -12
0 -6 -5 -7 -12 -2 -20 12 -38 12 -38 1 0 -6 7 -8 15 -5 8 4 17 2 21 -4 4 -6
11 -6 20 2 12 10 13 8 8 -7 -6 -16 -5 -17 7 -6 7 6 21 12 31 12 16 0 17 -3 8
-21 -7 -11 -9 -23 -6 -27 3 -3 6 0 6 7 0 7 4 10 9 7 5 -3 8 2 7 12 -1 13 8 17
41 18 28 1 41 -2 36 -9 -3 -6 -1 -7 5 -3 6 4 9 13 5 22 -4 11 -9 12 -19 3 -8
-6 -14 -8 -14 -5 0 9 32 42 37 39 10 -8 23 -1 18 10 -4 6 6 -3 23 -22 25 -29
31 -32 48 -22 18 11 17 12 -3 6 -17 -5 -22 -3 -17 8 3 8 1 18 -5 22 -7 4 -9
-1 -5 -12 5 -15 4 -16 -5 -3 -16 22 -13 29 8 27 11 0 19 -6 18 -12 -1 -5 4 -9
11 -7 6 1 12 -1 13 -5 0 -5 2 -17 4 -27 2 -11 -3 -29 -11 -40 -8 -11 -14 -16
-14 -11 0 5 -6 1 -13 -9 -7 -9 -22 -18 -33 -18 -18 -2 -20 -6 -14 -45 5 -34 3
-46 -9 -54 -14 -9 -14 -10 1 -5 10 3 20 1 23 -4 4 -6 0 -10 -7 -10 -10 0 -10
-2 0 -9 11 -6 7 -13 -15 -29 -15 -11 -37 -21 -48 -22 -37 -4 -56 0 -50 10 3 6
-2 10 -12 11 -10 0 -13 3 -6 5 9 4 9 13 2 32 -13 34 -13 33 3 43 8 6 9 9 1 9
-6 0 -10 11 -9 24 2 18 -1 22 -16 18 -10 -2 -18 1 -18 7 0 7 -4 10 -8 7 -4 -2
-21 1 -37 9 -17 7 -38 16 -48 19 -10 3 -16 10 -13 15 3 5 -3 7 -13 4 -10 -3
-30 2 -43 11 -14 9 -28 13 -31 9 -4 -3 -7 -1 -7 5 0 7 -3 11 -7 10 -12 -3 -93
24 -93 31 0 4 -12 8 -26 9 -32 2 -46 11 -39 22 3 5 0 12 -6 16 -8 5 -9 3 -4
-6 6 -10 1 -12 -25 -6 -49 9 -56 28 -18 47 32 17 74 19 96 6z m-566 -99 c-7
-7 -12 -8 -12 -2 0 6 3 14 7 17 3 4 9 5 12 2 2 -3 -1 -11 -7 -17z m2128 -13
c0 17 2 17 10 5 11 -17 13 -37 3 -27 -3 4 -12 2 -20 -4 -7 -6 -13 -8 -13 -4 0
4 -7 1 -17 -6 -13 -11 -17 -11 -20 -1 -3 6 -9 12 -14 12 -6 0 -7 -4 -4 -10 3
-5 -1 -10 -11 -10 -13 0 -14 3 -5 13 6 8 7 18 3 22 -4 5 -2 5 5 1 6 -3 15 -1
18 5 4 5 13 8 21 5 8 -3 14 0 14 6 0 7 7 3 15 -8 14 -19 14 -19 15 1z m-106
-30 c-4 -8 -11 -15 -16 -15 -6 0 -5 6 2 15 7 8 14 15 16 15 2 0 1 -7 -2 -15z
m499 -8 c4 3 7 -2 7 -12 0 -14 -3 -15 -15 -5 -8 7 -15 9 -15 6 0 -4 -5 -4 -10
-1 -6 4 -8 11 -4 16 4 6 10 6 18 0 7 -6 16 -8 19 -4z m494 -264 c-13 -13 -19
-14 -29 -5 -9 9 -7 12 10 12 12 0 22 5 22 12 0 6 3 8 7 4 4 -3 -1 -14 -10 -23z
m-366 -30 c13 -16 12 -17 -3 -4 -10 7 -18 15 -18 17 0 8 8 3 21 -13z m-356
-143 c3 -6 -1 -7 -9 -4 -18 7 -21 14 -7 14 6 0 13 -4 16 -10z m-794 -147 c12
-16 12 -17 -2 -6 -9 7 -20 9 -24 5 -5 -4 -5 -1 -1 6 9 16 11 15 27 -5z m469
-69 c0 -8 -5 -12 -10 -9 -6 4 -8 11 -5 16 9 14 15 11 15 -7z m-2678 -96 c-7
-7 -12 -8 -12 -2 0 14 12 26 19 19 2 -3 -1 -11 -7 -17z m-333 -47 c8 -14 5
-23 -17 -42 -27 -24 -68 -38 -57 -19 3 5 0 10 -7 10 -9 0 -9 3 2 10 8 5 11 10
6 10 -5 0 -3 7 4 15 7 8 16 13 20 10 4 -3 10 2 14 10 7 20 23 19 35 -4z"/>
<path d="M2010 3438 c0 -5 -12 -6 -26 -4 -21 4 -24 3 -14 -9 8 -10 17 -12 29
-5 10 5 26 8 37 6 10 -2 13 -1 5 1 -12 4 -12 6 0 14 10 6 8 8 -9 6 -12 0 -22
-5 -22 -9z"/>
<path d="M2066 3438 c3 -5 10 -6 15 -3 13 9 11 12 -6 12 -8 0 -12 -4 -9 -9z"/>
<path d="M2178 3403 c-7 -10 -8 -14 -1 -10 6 4 14 1 16 -5 4 -10 6 -10 6 0 1
10 6 10 21 2 28 -15 25 -6 -4 13 -22 15 -25 15 -38 0z"/>
<path d="M1833 3370 c5 -29 13 -33 13 -5 0 14 -4 25 -8 25 -4 0 -7 -9 -5 -20z"/>
<path d="M1811 3354 c0 -11 3 -14 6 -6 3 7 2 16 -1 19 -3 4 -6 -2 -5 -13z"/>
<path d="M1778 3328 c-7 -17 15 -19 29 -3 4 4 3 5 -4 2 -6 -4 -13 -2 -15 5 -3
8 -6 6 -10 -4z"/>
<path d="M2303 3325 c0 -8 4 -12 9 -9 5 3 6 10 3 15 -9 13 -12 11 -12 -6z"/>
<path d="M1750 3300 c0 -5 5 -10 11 -10 5 0 7 5 4 10 -3 6 -8 10 -11 10 -2 0
-4 -4 -4 -10z"/>
<path d="M2316 3292 c-3 -5 1 -9 9 -9 8 0 12 4 9 9 -3 4 -7 8 -9 8 -2 0 -6 -4
-9 -8z"/>
<path d="M1874 3143 c4 -8 1 -13 -8 -14 -27 -2 -30 -4 -53 -24 -15 -13 -23
-31 -23 -51 0 -18 -6 -35 -12 -37 -8 -3 -5 -6 5 -6 10 -1 16 -5 13 -10 -4 -5
0 -11 6 -14 10 -3 10 -7 1 -19 -10 -12 -10 -15 2 -15 8 0 12 4 9 9 -3 4 2 8
10 8 21 0 31 -21 15 -32 -11 -7 -9 -8 6 -6 12 2 19 -2 17 -10 -1 -8 2 -11 8
-7 8 5 8 11 0 20 -8 10 -5 13 15 13 21 0 23 -3 14 -14 -10 -12 -8 -13 6 -7 15
5 17 3 12 -11 -4 -11 -3 -15 4 -11 6 4 8 13 5 21 -3 7 -1 16 4 19 6 4 10 1 10
-4 0 -6 7 -11 15 -11 8 0 15 5 15 11 0 5 -5 7 -12 3 -7 -4 -8 -3 -4 5 6 9 11
9 22 0 12 -10 13 -9 8 5 -4 11 -1 16 11 16 14 0 15 3 6 14 -7 8 -8 17 -3 20
15 9 8 58 -12 92 -14 23 -26 31 -54 32 -20 2 -43 8 -51 15 -12 9 -13 9 -7 0z"/>
<path d="M1730 3120 c0 -5 5 -10 10 -10 6 0 10 5 10 10 0 6 -4 10 -10 10 -5 0
-10 -4 -10 -10z"/>
<path d="M2195 3100 c-11 -4 -26 -5 -34 -2 -9 3 -12 1 -7 -6 4 -7 1 -12 -8
-12 -26 0 -48 -45 -43 -86 3 -20 11 -41 18 -48 9 -8 10 -8 4 2 -6 11 -3 12 12
3 11 -6 24 -7 28 -3 5 4 5 1 1 -6 -4 -7 -11 -10 -16 -7 -5 3 -12 0 -16 -7 -4
-7 -4 -10 1 -6 4 4 15 2 23 -5 13 -9 14 -9 8 0 -5 9 3 12 33 10 21 -1 37 -5
34 -9 -2 -5 1 -8 6 -8 6 0 11 8 11 17 0 13 3 14 12 5 7 -7 17 -12 23 -12 5 0
4 4 -4 9 -11 7 -6 17 24 46 21 21 29 35 19 31 -10 -4 -16 -4 -12 -1 9 9 -12
65 -24 65 -5 0 -6 6 -2 13 4 6 4 9 0 5 -4 -3 -22 0 -39 7 -18 7 -41 9 -52 5z"/>
<path d="M1760 3035 c-7 -9 -11 -17 -9 -20 3 -2 10 5 17 15 14 24 10 26 -8 5z"/>
<path d="M2010 3000 c-9 -6 -10 -10 -3 -10 6 0 15 5 18 10 8 12 4 12 -15 0z"/>
<path d="M1775 2969 c-4 -6 -5 -12 -2 -15 2 -3 7 2 10 11 7 17 1 20 -8 4z"/>
<path d="M2070 2966 c0 -2 7 -7 16 -10 8 -3 12 -2 9 4 -6 10 -25 14 -25 6z"/>
<path d="M2314 2955 c-4 -8 -11 -12 -17 -8 -6 4 -7 1 -2 -7 6 -10 11 -10 20 3
7 9 16 13 20 9 5 -4 5 -1 1 6 -9 16 -15 15 -22 -3z"/>
<path d="M2005 2888 c-13 -28 -22 -55 -19 -60 3 -4 -3 -8 -13 -8 -11 0 -14 -3
-7 -8 6 -4 10 -14 9 -23 -2 -12 4 -16 20 -15 13 0 21 4 18 9 -4 6 12 11 30 8
4 0 7 5 7 12 0 8 4 7 10 -3 5 -8 10 -12 10 -7 0 4 11 0 26 -9 16 -11 23 -23
19 -33 -3 -8 -2 -12 2 -7 4 4 8 15 9 24 3 48 5 53 15 46 7 -4 0 10 -14 31 -14
21 -23 43 -20 48 3 6 1 7 -5 3 -6 -3 -17 3 -25 14 -7 11 -17 17 -20 13 -4 -3
-7 -1 -7 5 0 28 -23 8 -45 -40z"/>
<path d="M2095 2929 c-4 -6 -5 -12 -2 -15 2 -3 7 2 10 11 7 17 1 20 -8 4z"/>
<path d="M2210 2900 c0 -5 5 -10 11 -10 5 0 7 5 4 10 -3 6 -8 10 -11 10 -2 0
-4 -4 -4 -10z"/>
<path d="M2255 2900 c-3 -5 -1 -10 4 -10 6 0 11 5 11 10 0 6 -2 10 -4 10 -3 0
-8 -4 -11 -10z"/>
<path d="M2166 2878 c3 -5 10 -6 15 -3 13 9 11 12 -6 12 -8 0 -12 -4 -9 -9z"/>
<path d="M2333 2865 c0 -8 4 -12 9 -9 5 3 6 10 3 15 -9 13 -12 11 -12 -6z"/>
<path d="M2033 2766 c-1 -12 1 -15 4 -7 5 11 7 11 14 0 6 -10 8 -8 7 7 -2 27
-24 27 -25 0z"/>
<path d="M2070 2781 c0 -5 7 -12 16 -15 14 -5 15 -4 4 9 -14 17 -20 19 -20 6z"/>
<path d="M1871 2651 c-8 -5 -9 -11 -3 -15 5 -3 12 1 16 9 6 17 6 18 -13 6z"/>
<path d="M2229 2596 c8 -10 9 -16 1 -19 -6 -3 -5 -4 2 -3 19 4 20 23 2 30 -14
5 -15 4 -5 -8z"/>
<path d="M2046 2542 c-3 -5 1 -9 9 -9 8 0 12 4 9 9 -3 4 -7 8 -9 8 -2 0 -6 -4
-9 -8z"/>
<path d="M1935 2531 c-3 -5 -2 -12 3 -15 5 -3 9 1 9 9 0 17 -3 19 -12 6z"/>
<path d="M2573 2551 c-9 -14 -9 -23 0 -35 10 -14 12 -11 13 19 1 19 1 35 0 35
-1 0 -7 -9 -13 -19z"/>
<path d="M2816 2521 c-3 -5 1 -11 9 -14 9 -4 12 -1 8 9 -6 16 -10 17 -17 5z"/>
<path d="M2519 2493 c-8 -9 -9 -14 -2 -10 6 4 13 1 16 -5 3 -7 4 -3 4 10 -1
26 -1 26 -18 5z"/>
<path d="M2785 2460 c-3 -6 1 -7 9 -4 18 7 21 14 7 14 -6 0 -13 -4 -16 -10z"/>
<path d="M2500 2446 c0 -2 8 -10 18 -17 15 -13 16 -12 3 4 -13 16 -21 21 -21
13z"/>
<path d="M2353 2407 c-14 -23 -10 -32 16 -34 l26 -1 -24 12 c-13 7 -19 16 -14
19 6 4 13 3 17 0 4 -4 14 -8 23 -9 11 -2 13 0 4 9 -15 15 -40 17 -48 4z"/>
<path d="M2273 2367 c-13 -20 -11 -34 3 -34 9 0 11 4 4 12 -5 7 -7 15 -3 19 4
4 13 -4 20 -16 l14 -23 -7 23 c-5 22 -4 23 18 12 16 -9 20 -9 12 -1 -16 17
-52 22 -61 8z"/>
<path d="M2216 2301 c-3 -4 4 -7 14 -6 27 2 33 10 10 12 -11 1 -22 -2 -24 -6z"/>
<path d="M2150 2270 c-9 -6 -10 -10 -3 -10 6 0 15 5 18 10 8 12 4 12 -15 0z"/>
<path d="M2099 2268 c-5 -18 -6 -38 -1 -34 7 8 12 36 6 36 -2 0 -4 -1 -5 -2z"/>
<path d="M2033 2231 c0 -11 5 -18 9 -15 4 3 5 11 1 19 -7 21 -12 19 -10 -4z"/>
<path d="M1943 2187 c0 -12 1 -16 4 -8 5 11 7 11 14 0 5 -8 9 -9 9 -3 0 6 -6
16 -13 22 -10 8 -13 6 -14 -11z"/>
<path d="M1896 2171 c9 -9 34 -9 34 -1 0 5 -9 8 -20 7 -10 -1 -17 -3 -14 -6z"/>
<path d="M1874 2156 c1 -8 5 -18 8 -22 4 -3 5 1 4 10 -1 8 -5 18 -8 22 -4 3
-5 -1 -4 -10z"/>
<path d="M1335 2021 c-6 -11 13 -26 22 -17 4 3 1 6 -6 6 -7 0 -9 5 -6 10 3 6
4 10 1 10 -3 0 -7 -4 -11 -9z"/>
<path d="M1630 2016 c7 -7 13 -7 20 0 6 6 3 10 -10 10 -13 0 -16 -4 -10 -10z"/>
<path d="M1536 2635 c-3 -8 -1 -15 4 -15 6 0 10 7 10 15 0 8 -2 15 -4 15 -2 0
-6 -7 -10 -15z"/>
<path d="M1510 2621 c0 -6 4 -13 10 -16 6 -3 7 1 4 9 -7 18 -14 21 -14 7z"/>
<path d="M1455 2521 c-3 -5 -2 -12 3 -15 5 -3 9 1 9 9 0 17 -3 19 -12 6z"/>
<path d="M1655 2500 c-4 -6 -11 -7 -17 -4 -7 4 -8 2 -4 -4 7 -12 36 -5 36 9 0
12 -7 11 -15 -1z"/>
<path d="M1420 2485 c0 -7 30 -13 34 -7 3 4 -4 9 -15 9 -10 1 -19 0 -19 -2z"/>
<path d="M1675 2480 c-3 -5 -1 -10 4 -10 6 0 11 5 11 10 0 6 -2 10 -4 10 -3 0
-8 -4 -11 -10z"/>
<path d="M1394 2452 c4 -7 2 -21 -5 -30 -12 -15 -11 -15 6 0 16 15 17 20 6 30
-11 11 -13 10 -7 0z"/>
<path d="M1420 2446 c0 -2 8 -10 18 -17 15 -13 16 -12 3 4 -13 16 -21 21 -21
13z"/>
<path d="M1820 2411 c0 -6 4 -13 10 -16 6 -3 7 1 4 9 -7 18 -14 21 -14 7z"/>
<path d="M1874 2395 c0 -14 4 -25 8 -25 4 0 7 9 5 20 -5 29 -13 33 -13 5z"/>
<path d="M1903 2385 c0 -8 4 -12 9 -9 5 3 6 10 3 15 -9 13 -12 11 -12 -6z"/>
<path d="M1839 2373 c-13 -16 -12 -17 4 -4 9 7 17 15 17 17 0 8 -8 3 -21 -13z"/>
<path d="M2019 2333 c-8 -9 -9 -14 -2 -10 7 4 13 0 16 -10 3 -10 4 -6 4 10 -2
32 -1 32 -18 10z"/>
<path d="M2253 2213 c-3 -7 -3 -18 0 -25 3 -7 6 -3 6 9 1 16 6 20 21 16 11 -3
20 -1 20 4 0 14 -42 10 -47 -4z"/>
<path d="M2424 2182 c-8 -5 -5 -13 9 -27 20 -20 20 -20 9 1 -6 12 -8 24 -5 28
9 8 1 7 -13 -2z"/>
<path d="M2801 2136 c-8 -10 -9 -16 -1 -21 5 -3 10 -5 11 -3 4 18 7 38 4 38
-1 0 -8 -6 -14 -14z"/>
<path d="M2476 2118 c3 -5 10 -6 15 -3 13 9 11 12 -6 12 -8 0 -12 -4 -9 -9z"/>
<path d="M2547 2107 c-3 -8 1 -14 8 -14 7 0 11 6 8 14 -3 7 -6 13 -8 13 -2 0
-5 -6 -8 -13z"/>
<path d="M2875 2099 c-4 -6 -5 -12 -2 -15 2 -3 7 2 10 11 7 17 1 20 -8 4z"/>
<path d="M2646 2084 c-5 -14 -4 -15 9 -4 17 14 19 20 6 20 -5 0 -12 -7 -15
-16z"/>
<path d="M2733 2085 c0 -8 4 -12 9 -9 5 3 6 10 3 15 -9 13 -12 11 -12 -6z"/>
<path d="M2614 2076 c1 -8 5 -18 8 -22 4 -3 5 1 4 10 -1 8 -5 18 -8 22 -4 3
-5 -1 -4 -10z"/>
<path d="M3830 2101 c0 -15 18 -23 25 -11 4 6 12 7 18 4 7 -4 9 -3 4 1 -11 13
-47 17 -47 6z"/>
<path d="M686 1275 c-3 -8 -11 -14 -17 -13 -16 4 -20 -30 -4 -36 10 -3 12 0 8
12 -3 9 -3 14 2 10 13 -12 45 11 39 27 -8 19 -20 19 -28 0z m24 -9 c0 -2 -7
-7 -16 -10 -8 -3 -12 -2 -9 4 6 10 25 14 25 6z"/>
<path d="M4815 3998 c-22 -12 -35 -28 -35 -42 0 -4 8 2 19 15 17 21 21 22 37
9 17 -14 18 -13 7 1 -7 9 -10 19 -6 22 9 10 1 8 -22 -5z"/>
<path d="M4810 3959 c0 -5 5 -7 10 -4 6 3 10 8 10 11 0 2 -4 4 -10 4 -5 0 -10
-5 -10 -11z"/>
<path d="M4673 3813 c-17 -6 -17 -20 0 -20 8 0 14 6 14 14 0 7 -1 13 -1 12 -1
0 -7 -3 -13 -6z"/>
<path d="M3850 3759 c0 -5 5 -7 10 -4 6 3 10 8 10 11 0 2 -4 4 -10 4 -5 0 -10
-5 -10 -11z"/>
<path d="M4630 3610 c0 -5 5 -10 11 -10 5 0 7 5 4 10 -3 6 -8 10 -11 10 -2 0
-4 -4 -4 -10z"/>
<path d="M4600 3585 c-7 -9 -8 -15 -2 -15 5 0 12 7 16 15 3 8 4 15 2 15 -2 0
-9 -7 -16 -15z"/>
<path d="M4565 3560 c-4 -6 -10 -8 -15 -5 -5 3 -12 0 -16 -7 -4 -7 -4 -10 1
-6 4 4 15 3 24 -2 13 -6 17 -4 17 11 0 22 -2 23 -11 9z"/>
<path d="M4530 3520 c0 -5 5 -10 10 -10 6 0 10 5 10 10 0 6 -4 10 -10 10 -5 0
-10 -4 -10 -10z"/>
<path d="M4392 3438 c-15 -15 -15 -28 -1 -28 5 0 8 4 5 9 -4 5 0 11 6 14 7 2
10 7 7 10 -3 4 -11 1 -17 -5z"/>
<path d="M4435 3441 c3 -2 -3 -11 -13 -19 -11 -9 -7 -8 11 2 15 9 33 14 39 10
6 -4 8 -3 4 4 -3 6 -15 10 -26 9 -10 -1 -17 -3 -15 -6z"/>
<path d="M4355 3399 c-4 -6 -14 -8 -22 -5 -8 3 -11 1 -8 -4 3 -6 1 -10 -6 -10
-7 0 -10 -2 -7 -5 7 -8 58 16 58 27 0 11 -8 10 -15 -3z"/>
<path d="M4234 3367 c-3 -9 -10 -17 -16 -17 -5 0 -7 4 -4 8 3 5 -1 9 -9 9 -11
0 -12 -3 -3 -14 6 -8 18 -11 27 -7 9 4 24 6 34 6 9 0 17 4 17 9 0 6 5 7 10 4
6 -4 7 -11 4 -17 -4 -7 -2 -8 5 -4 9 6 9 11 0 22 -8 10 -15 11 -24 4 -8 -6
-15 -6 -23 2 -8 8 -13 7 -18 -5z"/>
<path d="M4144 3359 c-2 -4 5 -13 16 -19 11 -6 20 -8 20 -4 0 4 9 -1 19 -10
14 -13 21 -14 27 -5 4 7 3 10 -3 6 -6 -4 -16 0 -23 8 -7 8 -17 12 -23 8 -6 -4
-8 0 -5 9 6 15 -19 22 -28 7z"/>
<path d="M4116 3351 c-3 -5 1 -11 9 -14 9 -4 12 -1 8 9 -6 16 -10 17 -17 5z"/>
<path d="M3973 3255 c-3 -9 -3 -18 -1 -21 3 -3 8 4 11 16 6 23 -1 27 -10 5z"/>
<path d="M3906 3251 c-3 -4 0 -16 8 -26 11 -15 13 -16 13 -1 0 9 -4 16 -9 16
-5 0 -6 5 -3 10 3 6 4 10 1 10 -3 0 -7 -4 -10 -9z"/>
<path d="M4468 3243 c7 -3 16 -2 19 1 4 3 -2 6 -13 5 -11 0 -14 -3 -6 -6z"/>
<path d="M3870 3200 c0 -5 5 -10 10 -10 6 0 10 5 10 10 0 6 -4 10 -10 10 -5 0
-10 -4 -10 -10z"/>
<path d="M4446 3202 c-3 -5 1 -9 9 -9 8 0 12 4 9 9 -3 4 -7 8 -9 8 -2 0 -6 -4
-9 -8z"/>
<path d="M4390 3081 c0 -6 4 -12 8 -15 5 -3 9 1 9 9 0 8 -4 15 -9 15 -4 0 -8
-4 -8 -9z"/>
<path d="M154 3055 c0 -13 3 -22 7 -19 8 4 6 30 -2 38 -3 3 -5 -5 -5 -19z"/>
<path d="M4376 3043 c-6 -14 -5 -15 5 -6 7 7 10 15 7 18 -3 3 -9 -2 -12 -12z"/>
<path d="M166 3022 c-3 -5 1 -9 9 -9 8 0 12 4 9 9 -3 4 -7 8 -9 8 -2 0 -6 -4
-9 -8z"/>
<path d="M4349 3028 c-8 -27 -5 -36 9 -30 10 4 12 7 4 10 -7 2 -10 8 -6 13 3
5 3 9 0 9 -3 0 -6 -1 -7 -2z"/>
<path d="M4326 2977 c3 -10 9 -15 12 -12 3 3 0 11 -7 18 -10 9 -11 8 -5 -6z"/>
<path d="M4225 2829 c-11 -16 -1 -19 13 -3 7 8 8 14 3 14 -5 0 -13 -5 -16 -11z"/>
<path d="M4235 2799 c-4 -6 -5 -12 -2 -15 2 -3 7 2 10 11 7 17 1 20 -8 4z"/>
<path d="M4041 2626 c-10 -11 -9 -14 1 -12 14 2 23 15 15 22 -2 2 -10 -2 -16
-10z"/>
<path d="M293 2604 c3 -23 37 -63 37 -44 0 6 -7 13 -15 16 -8 4 -13 9 -11 13
3 4 0 13 -5 21 -7 12 -8 10 -6 -6z"/>
<path d="M340 2492 c9 -19 30 -23 30 -5 0 4 -3 3 -7 0 -3 -4 -12 1 -20 11 -13
15 -13 15 -3 -6z"/>
<path d="M330 2380 c0 -5 5 -10 11 -10 5 0 7 5 4 10 -3 6 -8 10 -11 10 -2 0
-4 -4 -4 -10z"/>
<path d="M4633 2278 c-13 -6 -25 -19 -28 -29 -4 -11 -11 -19 -16 -19 -6 0 -7
6 -3 13 4 6 -7 -1 -24 -17 -18 -17 -32 -32 -32 -35 0 -3 5 0 12 7 9 9 15 9 27
-1 14 -10 14 -10 4 4 -14 18 -8 30 12 23 8 -3 18 4 24 15 6 11 19 18 29 16 12
-2 18 3 18 16 0 10 0 19 -1 18 0 0 -10 -5 -22 -11z"/>
<path d="M4670 2275 c0 -8 4 -15 10 -15 5 0 7 7 4 15 -4 8 -8 15 -10 15 -2 0
-4 -7 -4 -15z"/>
<path d="M330 2259 c0 -5 5 -7 10 -4 6 3 10 8 10 11 0 2 -4 4 -10 4 -5 0 -10
-5 -10 -11z"/>
<path d="M4507 2099 c7 -7 15 -10 18 -7 3 3 -2 9 -12 12 -14 6 -15 5 -6 -5z"/>
<path d="M4130 2040 c0 -5 5 -10 11 -10 5 0 7 5 4 10 -3 6 -8 10 -11 10 -2 0
-4 -4 -4 -10z"/>
<path d="M4165 2040 c-3 -6 1 -7 9 -4 18 7 21 14 7 14 -6 0 -13 -4 -16 -10z"/>
<path d="M4365 2040 c-3 -5 -13 -7 -23 -4 -14 5 -14 4 -3 -4 15 -11 41 -5 41
9 0 12 -7 11 -15 -1z"/>
<path d="M4430 2040 c-13 -8 -12 -10 3 -10 9 0 17 5 17 10 0 12 -1 12 -20 0z"/>
<path d="M4105 2030 c-4 -6 -10 -8 -15 -5 -17 10 -19 -13 -3 -26 12 -10 14
-10 9 -1 -4 6 -3 12 2 12 6 0 12 7 16 15 6 17 0 20 -9 5z"/>
<path d="M4210 2019 c0 -5 5 -7 10 -4 6 3 10 8 10 11 0 2 -4 4 -10 4 -5 0 -10
-5 -10 -11z"/>
<path d="M4987 1866 c-4 -10 -1 -13 8 -9 8 3 12 9 9 14 -7 12 -11 11 -17 -5z"/>
<path d="M356 1862 c-3 -5 1 -9 9 -9 8 0 12 4 9 9 -3 4 -7 8 -9 8 -2 0 -6 -4
-9 -8z"/>
<path d="M4679 1828 c-7 -23 -4 -35 7 -35 9 0 11 4 4 12 -5 7 -7 15 -3 18 3 4
3 7 0 7 -4 0 -7 -1 -8 -2z"/>
<path d="M4845 1819 c-3 -4 2 -6 10 -5 21 3 28 13 10 13 -9 0 -18 -4 -20 -8z"/>
<path d="M4533 1807 c-3 -5 -12 -6 -22 -2 -12 5 -13 4 -4 -6 9 -9 16 -9 26 -1
9 8 17 8 24 1 7 -7 12 -6 16 3 5 15 -31 20 -40 5z"/>
<path d="M4589 1803 c-12 -16 -12 -17 2 -6 9 7 20 9 24 5 5 -4 5 -1 1 6 -9 16
-11 15 -27 -5z"/>
<path d="M4642 1806 c7 -8 15 -12 17 -11 5 6 -10 25 -20 25 -5 0 -4 -6 3 -14z"/>
<path d="M4884 1804 c-18 -14 -18 -15 4 -4 12 6 22 13 22 15 0 8 -5 6 -26 -11z"/>
<path d="M4466 1798 c3 -5 10 -6 15 -3 13 9 11 12 -6 12 -8 0 -12 -4 -9 -9z"/>
<path d="M4480 1780 c-8 -5 -12 -12 -9 -15 4 -3 12 1 19 10 14 17 11 19 -10 5z"/>
<path d="M4349 1633 c-6 -6 -17 -9 -26 -6 -12 5 -11 1 3 -15 22 -26 25 -27 18
-7 -4 10 -1 14 7 12 8 -2 11 -2 6 0 -12 8 3 22 17 17 8 -3 16 -2 19 3 9 14
-33 10 -44 -4z"/>
<path d="M2044 1622 c3 -5 1 -12 -6 -14 -8 -3 -8 -9 1 -24 8 -12 11 -13 8 -3
-3 9 -1 21 5 27 6 6 6 12 -3 17 -7 5 -10 4 -5 -3z"/>
<path d="M1960 1596 c0 -8 4 -17 9 -20 5 -4 7 3 4 14 -6 23 -13 26 -13 6z"/>
<path d="M1925 1589 c-4 -6 -4 -13 -1 -16 3 -4 6 -1 6 6 0 7 5 9 12 5 7 -4 8
-3 4 4 -9 15 -13 15 -21 1z"/>
<path d="M1860 1578 c0 -4 7 -8 15 -8 8 0 15 4 15 8 0 5 -7 9 -15 9 -8 0 -15
-4 -15 -9z"/>
<path d="M1803 1573 c-16 -6 -17 -33 -2 -33 5 0 8 4 4 9 -3 6 3 14 12 20 18
11 8 14 -14 4z"/>
<path d="M1765 1560 c-4 -6 -10 -8 -15 -5 -5 3 -12 0 -16 -7 -4 -7 -4 -10 1
-6 4 4 15 3 24 -2 13 -6 17 -4 17 11 0 22 -2 23 -11 9z"/>
<path d="M1836 1562 c-3 -5 1 -9 9 -9 8 0 12 4 9 9 -3 4 -7 8 -9 8 -2 0 -6 -4
-9 -8z"/>
<path d="M4227 1559 c7 -7 15 -10 18 -7 3 3 -2 9 -12 12 -14 6 -15 5 -6 -5z"/>
<path d="M4270 1559 c0 -5 5 -7 10 -4 6 3 10 8 10 11 0 2 -4 4 -10 4 -5 0 -10
-5 -10 -11z"/>
<path d="M2170 1550 c0 -6 -4 -8 -10 -5 -5 3 -10 2 -10 -4 0 -5 9 -9 20 -8 21
1 26 12 10 22 -5 3 -10 1 -10 -5z"/>
<path d="M2264 1552 c3 -6 -4 -18 -16 -26 -12 -9 -18 -16 -12 -16 5 0 15 5 22
12 17 17 77 21 63 4 -8 -9 -7 -13 3 -13 8 0 13 7 11 16 -1 10 -12 16 -26 16
-13 0 -30 4 -38 9 -9 6 -12 5 -7 -2z"/>
<path d="M2090 1540 c0 -5 5 -10 11 -10 5 0 7 5 4 10 -3 6 -8 10 -11 10 -2 0
-4 -4 -4 -10z"/>
<path d="M2355 1529 c-4 -6 -5 -12 -2 -15 2 -3 7 2 10 11 7 17 1 20 -8 4z"/>
<path d="M4166 1531 c-3 -4 1 -17 10 -27 14 -18 15 -18 5 3 -8 16 -8 23 2 26
9 4 9 6 0 6 -6 1 -14 -3 -17 -8z"/>
<path d="M1675 1512 c-3 -8 -3 -17 0 -20 3 -3 5 0 5 6 0 7 5 12 11 12 5 0 7
-6 3 -12 -4 -7 -3 -9 1 -5 5 4 10 13 11 21 2 18 -24 16 -31 -2z"/>
<path d="M1736 1513 c-6 -14 -5 -15 5 -6 7 7 10 15 7 18 -3 3 -9 -2 -12 -12z"/>
<path d="M4135 1510 c-3 -5 -1 -10 4 -10 6 0 11 5 11 10 0 6 -2 10 -4 10 -3 0
-8 -4 -11 -10z"/>
<path d="M1595 1480 c-10 -11 -15 -23 -12 -27 4 -3 7 -1 7 6 0 7 5 9 10 6 6
-4 10 -3 9 2 -3 20 2 27 11 13 8 -13 10 -12 10 3 0 23 -13 22 -35 -3z"/>
<path d="M2390 1496 c0 -2 8 -10 18 -17 15 -13 16 -12 3 4 -13 16 -21 21 -21
13z"/>
<path d="M2513 1473 c9 -2 17 -9 17 -15 0 -5 6 -8 14 -5 7 3 20 0 27 -6 11
-10 11 -9 0 5 -7 10 -17 16 -21 13 -5 -3 -11 -1 -15 5 -3 5 -14 9 -23 9 -15
-1 -15 -2 1 -6z"/>
<path d="M1546 1462 c-2 -4 -1 -14 3 -21 6 -10 10 -9 14 3 6 16 -8 32 -17 18z"/>
<path d="M3405 1462 c-5 -4 -11 -16 -12 -27 -1 -11 0 -14 3 -7 3 6 10 10 15 7
5 -4 6 2 2 11 -5 13 -3 15 7 9 9 -5 11 -4 6 3 -8 14 -8 14 -21 4z"/>
<path d="M3446 1452 c-2 -4 -1 -14 3 -21 6 -10 10 -9 14 3 6 16 -8 32 -17 18z"/>
<path d="M3761 1416 c-9 -11 -9 -16 1 -22 7 -4 10 -4 6 1 -4 4 -3 14 3 22 6 7
9 13 6 13 -2 0 -10 -6 -16 -14z"/>
<path d="M1446 1403 c-6 -14 -5 -15 5 -6 7 7 10 15 7 18 -3 3 -9 -2 -12 -12z"/>
<path d="M3895 1408 c4 -10 11 -18 15 -18 4 0 14 8 21 18 12 15 12 16 -2 5
-12 -10 -18 -10 -28 0 -10 9 -11 8 -6 -5z"/>
<path d="M3983 1407 c0 -8 6 -14 14 -14 9 0 10 4 2 14 -6 7 -12 13 -14 13 -1
0 -2 -6 -2 -13z"/>
<path d="M1295 1401 c-3 -5 -2 -12 3 -15 5 -3 9 1 9 9 0 17 -3 19 -12 6z"/>
<path d="M2700 1401 c0 -6 4 -13 10 -16 6 -3 7 1 4 9 -7 18 -14 21 -14 7z"/>
<path d="M3590 1400 c0 -5 5 -10 11 -10 5 0 7 5 4 10 -3 6 -8 10 -11 10 -2 0
-4 -4 -4 -10z"/>
<path d="M3650 1399 c0 -4 6 -9 13 -12 8 -3 14 0 14 7 0 7 -6 13 -14 13 -7 0
-13 -4 -13 -8z"/>
<path d="M1256 1391 c-4 -5 -2 -12 3 -15 5 -4 12 -2 15 3 4 5 2 12 -3 15 -5 4
-12 2 -15 -3z"/>
<path d="M1205 1380 c-3 -5 -1 -10 4 -10 6 0 11 5 11 10 0 6 -2 10 -4 10 -3 0
-8 -4 -11 -10z"/>
<path d="M2763 1377 c-4 -6 -1 -7 7 -2 10 6 12 3 8 -13 -4 -12 -3 -20 2 -17 4
3 10 13 12 23 6 20 -18 27 -29 9z"/>
<path d="M3615 1380 c-3 -5 -1 -10 4 -10 6 0 11 5 11 10 0 6 -2 10 -4 10 -3 0
-8 -4 -11 -10z"/>
<path d="M3875 1380 c3 -5 8 -10 11 -10 2 0 4 5 4 10 0 6 -5 10 -11 10 -5 0
-7 -4 -4 -10z"/>
<path d="M2902 1371 c-11 -6 -10 -10 4 -15 20 -8 32 0 18 14 -5 5 -15 5 -22 1z"/>
<path d="M1155 1359 c-4 -6 -13 -8 -21 -5 -21 8 -28 -14 -10 -30 9 -8 11 -9 6
-2 -13 16 -13 31 0 23 5 -3 19 -8 31 -10 16 -3 18 -1 10 9 -6 7 -8 16 -4 19 3
4 4 7 0 7 -3 0 -9 -5 -12 -11z"/>
<path d="M1226 1362 c-2 -4 4 -8 14 -8 10 0 16 4 14 8 -3 4 -9 8 -14 8 -5 0
-11 -4 -14 -8z"/>
<path d="M1190 1349 c0 -5 5 -7 10 -4 6 3 10 8 10 11 0 2 -4 4 -10 4 -5 0 -10
-5 -10 -11z"/>
<path d="M2964 1339 c-19 -22 -19 -22 4 -8 12 8 22 17 22 21 0 12 -6 9 -26
-13z"/>
<path d="M3265 1350 c-4 -6 -11 -8 -16 -4 -6 3 -20 -3 -32 -14 -12 -12 -25
-21 -29 -21 -5 -1 -7 -4 -5 -8 3 -12 21 -4 30 13 7 12 12 13 23 3 9 -7 14 -8
14 -1 0 6 -6 13 -12 16 -7 3 -3 3 8 1 14 -4 24 0 28 10 6 17 0 20 -9 5z"/>
<path d="M3330 1351 c0 -6 4 -13 10 -16 6 -3 7 1 4 9 -7 18 -14 21 -14 7z"/>
<path d="M3007 1335 c-12 -8 -14 -15 -8 -20 6 -3 11 -1 11 5 0 7 6 10 13 7 6
-2 11 -10 10 -16 -2 -6 2 -11 7 -11 6 0 10 5 10 11 0 5 5 7 10 4 6 -4 8 -10 6
-14 -3 -3 4 -7 14 -7 10 0 16 6 13 13 -3 7 -9 11 -13 8 -5 -3 -11 -1 -15 5 -4
6 -10 8 -15 5 -5 -3 -12 1 -17 9 -7 12 -11 12 -26 1z"/>
<path d="M3290 1340 c0 -5 5 -10 11 -10 5 0 7 5 4 10 -3 6 -8 10 -11 10 -2 0
-4 -4 -4 -10z"/>
<path d="M356 1277 c3 -10 9 -15 12 -12 3 3 0 11 -7 18 -10 9 -11 8 -5 -6z"/>
<path d="M3135 1280 c3 -5 8 -10 11 -10 2 0 4 5 4 10 0 6 -5 10 -11 10 -5 0
-7 -4 -4 -10z"/>
<path d="M910 1261 c0 -6 4 -12 8 -15 5 -3 9 1 9 9 0 8 -4 15 -9 15 -4 0 -8
-4 -8 -9z"/>
<path d="M815 1139 c-4 -6 -5 -12 -2 -15 2 -3 7 2 10 11 7 17 1 20 -8 4z"/>
<path d="M770 1099 c0 -5 5 -7 10 -4 6 3 10 8 10 11 0 2 -4 4 -10 4 -5 0 -10
-5 -10 -11z"/>
<path d="M605 1030 c-3 -5 -5 -10 -3 -11 19 -4 51 -9 47 -6 -2 1 -11 8 -21 15
-11 9 -18 10 -23 2z"/>
</g>
</svg>
